<svg width="32" height="32" viewBox="0 0 32 32" fill="none" xmlns="http://www.w3.org/2000/svg">
  <!-- Fondo circular azul -->
  <circle cx="16" cy="16" r="16" fill="#1e40af"/>
  
  <!-- Libro abierto -->
  <path d="M8 10C8 8.89543 8.89543 8 10 8H14C15.1046 8 16 8.89543 16 10V22C16 23.1046 15.1046 24 14 24H10C8.89543 24 8 23.1046 8 22V10Z" fill="white"/>
  
  <!-- Páginas del libro -->
  <path d="M10 8V24" stroke="#1e40af" stroke-width="1.5"/>
  <path d="M12 8V24" stroke="#1e40af" stroke-width="1.5"/>
  <path d="M14 8V24" stroke="#1e40af" stroke-width="1.5"/>
  
  <!-- Segundo libro -->
  <path d="M16 10C16 8.89543 16.8954 8 18 8H22C23.1046 8 24 8.89543 24 10V22C24 23.1046 23.1046 24 22 24H18C16.8954 24 16 23.1046 16 22V10Z" fill="white"/>
  
  <!-- Páginas del segundo libro -->
  <path d="M18 8V24" stroke="#1e40af" stroke-width="1.5"/>
  <path d="M20 8V24" stroke="#1e40af" stroke-width="1.5"/>
  <path d="M22 8V24" stroke="#1e40af" stroke-width="1.5"/>
  
  <!-- Líneas de texto -->
  <line x1="10" y1="12" x2="14" y2="12" stroke="#1e40af" stroke-width="1"/>
  <line x1="10" y1="14" x2="13" y2="14" stroke="#1e40af" stroke-width="1"/>
  <line x1="10" y1="16" x2="14" y2="16" stroke="#1e40af" stroke-width="1"/>
  
  <line x1="18" y1="12" x2="22" y2="12" stroke="#1e40af" stroke-width="1"/>
  <line x1="18" y1="14" x2="21" y2="14" stroke="#1e40af" stroke-width="1"/>
  <line x1="18" y1="16" x2="22" y2="16" stroke="#1e40af" stroke-width="1"/>
  
  <!-- Graduación cap -->
  <path d="M12 6C12 5.44772 12.4477 5 13 5H19C19.5523 5 20 5.44772 20 6V7H12V6Z" fill="white"/>
  <path d="M10 7H22V8H10V7Z" fill="white"/>
  
  <!-- Borla -->
  <circle cx="16" cy="7" r="1" fill="white"/>
</svg>
